<svg id="Layer_1" data-name="Layer 1" xmlns="http://www.w3.org/2000/svg" viewBox="0 0 674 293"><defs><style>.cls-1{fill:#b00407;}.cls-2{fill:#cbd5e1;}</style></defs><polygon class="cls-1" points="520.52 61.19 520.52 61.19 392.21 189.51 336.52 133.82 336.52 224.37 360.77 224.37 360.77 192.36 392.21 223.8 516.97 99.04 516.97 224.37 541.22 224.37 541.22 40.49 520.52 61.19"/><polygon class="cls-2" points="409.25 153.88 298 42.63 298 224.37 322.25 224.37 322.25 101.18 392.1 171.03 409.25 153.88"/><polygon class="cls-2" points="401.82 233.41 418.92 250.51 478.45 190.97 478.45 224.37 502.7 224.37 502.7 132.43 401.82 233.41"/><path class="cls-2" d="M658,138.18,575.71,16.29a11.63,11.63,0,0,0-19.27,13l77.91,115.38-79,117a11.62,11.62,0,1,0,19.26,13L658,151.2A11.66,11.66,0,0,0,658,138.18Z"/><path class="cls-2" d="M211,146.31l35.88-53.14v0l27.71-41,0,0L290,29.31a11.63,11.63,0,0,0-19.27-13L258.83,34H94.26a11.63,11.63,0,1,0,0,23.25H243.13L231.11,75H163.89a11.63,11.63,0,1,0,0,23.25h51.52l-12,17.82H57.59a11.63,11.63,0,0,0,0,23.25H187.68l-.3.45a11.6,11.6,0,0,0,0,13l2.93,4.35h-96a11.63,11.63,0,1,0,0,23.25H206l12,17.81H158.71a11.63,11.63,0,0,0,0,23.25h75l11,16.3H110A11.63,11.63,0,0,0,110,261h150.4l9.23,13.69a11.63,11.63,0,1,0,19.27-13l-12.68-18.79v0Z"/><path class="cls-2" d="M126.32,209.85a11.63,11.63,0,0,0-11.63-11.63H25.63a11.63,11.63,0,1,0,0,23.25h89.06A11.62,11.62,0,0,0,126.32,209.85Z"/><path class="cls-2" d="M32.4,98.28h86.76a11.63,11.63,0,1,0,0-23.25H32.4a11.63,11.63,0,1,0,0,23.25Z"/></svg>