<svg xmlns="http://www.w3.org/2000/svg" viewBox="0 0 646 268.66"><defs><style>.cls-1{fill:#b00407;}.cls-2{fill:#1e293b;}</style></defs><g id="Layer_2" data-name="Layer 2"><g id="Layer_1-2" data-name="Layer 1"><polygon class="cls-1" points="506.52 50.02 506.52 50.02 378.21 178.33 322.52 122.65 322.52 213.2 346.77 213.2 346.77 181.19 378.21 212.63 502.97 87.86 502.97 213.2 527.22 213.2 527.22 29.32 506.52 50.02"/><polygon class="cls-2" points="395.25 142.71 284 31.46 284 213.2 308.25 213.2 308.25 90 378.1 159.86 395.25 142.71"/><polygon class="cls-2" points="387.82 222.24 404.92 239.34 464.45 179.8 464.45 213.2 488.7 213.2 488.7 121.26 387.82 222.24"/><path class="cls-2" d="M644,127,561.71,5.12a11.63,11.63,0,1,0-19.27,13l77.91,115.39-79,117a11.62,11.62,0,1,0,19.26,13L644,140A11.66,11.66,0,0,0,644,127Z"/><path class="cls-2" d="M197,135.14,232.92,82v0l27.71-41.05,0,0L276,18.13a11.63,11.63,0,1,0-19.27-13L244.83,22.8H80.26a11.63,11.63,0,1,0,0,23.25H229.13l-12,17.81H149.89a11.63,11.63,0,1,0,0,23.25h51.52l-12,17.82H43.59a11.63,11.63,0,0,0,0,23.25H173.68l-.3.45a11.6,11.6,0,0,0,0,13l2.93,4.35h-96a11.63,11.63,0,1,0,0,23.25H192l12,17.81H144.71a11.63,11.63,0,0,0,0,23.25h75l11,16.3H96a11.63,11.63,0,0,0,0,23.25h150.4l9.23,13.68a11.63,11.63,0,0,0,19.27-13l-12.68-18.78v0Z"/><path class="cls-2" d="M112.32,198.68a11.63,11.63,0,0,0-11.63-11.63H11.63a11.63,11.63,0,1,0,0,23.25h89.06A11.62,11.62,0,0,0,112.32,198.68Z"/><path class="cls-2" d="M18.4,87.11h86.76a11.63,11.63,0,1,0,0-23.25H18.4a11.63,11.63,0,1,0,0,23.25Z"/></g></g></svg>